<mxfile host="app.diagrams.net" modified="2023-12-27T13:51:31.182Z" agent="Mozilla/5.0 (Windows NT 10.0; Win64; x64) AppleWebKit/537.36 (KHTML, like Gecko) Chrome/120.0.0.0 Safari/537.36" version="22.1.13" etag="JlPrMknEMua0RMIt5SYs" type="github">
  <diagram name="Page-1" id="wu6Kweq_IXadMa-bzXc7">
    <mxGraphModel>
      <root>
        <mxCell id="0" />
        <mxCell id="1" parent="0" />
      </root>
    </mxGraphModel>
  </diagram>
</mxfile>
